<?xml version="1.0" encoding="UTF-8"?>
<svg id="Layer_2" data-name="Layer 2" xmlns="http://www.w3.org/2000/svg" viewBox="0 0 654.55 270.55">
  <defs>
    <style>
      .cls-1 {
        fill: none;
      }

      .cls-1, .cls-2 {
        stroke-width: 0px;
      }

      .cls-2 {
        fill: #780095;
      }
    </style>
  </defs>
  <g id="Layer_1-2" data-name="Layer 1">
    <g>
      <g>
        <path class="cls-2" d="m145.16,177.83h-21.25l-12.77-21.13c-.95-1.6-1.87-3.04-2.75-4.29-.88-1.26-1.77-2.34-2.66-3.24-.9-.9-1.83-1.58-2.81-2.06s-2.03-.72-3.18-.72h-4.98v31.44h-18.5v-82.13h29.32c19.93,0,29.9,7.45,29.9,22.34,0,2.86-.44,5.51-1.32,7.93-.88,2.43-2.12,4.61-3.72,6.56-1.6,1.95-3.54,3.63-5.81,5.04-2.27,1.41-4.8,2.52-7.59,3.32v.23c1.22.38,2.41,1,3.55,1.86s2.25,1.86,3.32,3.01c1.07,1.15,2.09,2.38,3.06,3.69s1.86,2.61,2.66,3.87l15.52,24.28Zm-50.4-68.27v22.85h8.02c3.97,0,7.16-1.15,9.56-3.44,2.44-2.33,3.67-5.21,3.67-8.65,0-7.18-4.3-10.77-12.89-10.77h-8.36Z"/>
        <path class="cls-2" d="m176.79,179.26c-9.78,0-17.46-2.74-23.05-8.22-5.59-5.48-8.39-12.92-8.39-22.31s2.9-17.29,8.71-22.77c5.8-5.48,13.65-8.22,23.54-8.22s17.37,2.74,22.91,8.22c5.54,5.48,8.3,12.72,8.3,21.74,0,9.74-2.86,17.43-8.56,23.08-5.71,5.65-13.53,8.48-23.45,8.48Zm.46-47.65c-4.28,0-7.6,1.47-9.97,4.41-2.37,2.94-3.55,7.1-3.55,12.49,0,11.26,4.54,16.9,13.63,16.9s13-5.79,13-17.35c0-10.96-4.37-16.44-13.12-16.44Z"/>
        <path class="cls-2" d="m247.32,179.26c-9.78,0-17.46-2.74-23.05-8.22-5.59-5.48-8.39-12.92-8.39-22.31s2.9-17.29,8.71-22.77c5.8-5.48,13.65-8.22,23.54-8.22s17.37,2.74,22.91,8.22c5.54,5.48,8.3,12.72,8.3,21.74,0,9.74-2.86,17.43-8.56,23.08-5.71,5.65-13.53,8.48-23.45,8.48Zm.46-47.65c-4.28,0-7.6,1.47-9.97,4.41-2.37,2.94-3.55,7.1-3.55,12.49,0,11.26,4.54,16.9,13.63,16.9s13-5.79,13-17.35c0-10.96-4.37-16.44-13.12-16.44Z"/>
        <path class="cls-2" d="m380.69,177.83h-18.04v-33.45c0-8.51-3.13-12.77-9.39-12.77-2.98,0-5.4,1.28-7.27,3.84-1.87,2.56-2.81,5.75-2.81,9.56v32.82h-18.1v-33.79c0-8.29-3.07-12.43-9.22-12.43-3.09,0-5.57,1.22-7.42,3.67-1.85,2.44-2.78,5.77-2.78,9.97v32.59h-18.1v-58.65h18.1v9.16h.23c1.87-3.13,4.5-5.68,7.88-7.65,3.38-1.97,7.07-2.95,11.08-2.95,8.29,0,13.96,3.65,17.01,10.94,4.47-7.29,11.04-10.94,19.7-10.94,12.75,0,19.13,7.87,19.13,23.6v36.48Z"/>
        <path class="cls-2" d="m389.99,176.28v-14.66c2.98,1.79,5.95,3.13,8.91,4.01,2.96.88,5.76,1.32,8.39,1.32,3.21,0,5.74-.44,7.59-1.32,1.85-.88,2.78-2.21,2.78-4.01,0-1.15-.42-2.1-1.26-2.86-.84-.76-1.92-1.43-3.24-2-1.32-.57-2.76-1.09-4.32-1.55-1.57-.46-3.07-.97-4.52-1.55-2.33-.88-4.38-1.82-6.16-2.83s-3.26-2.19-4.47-3.52c-1.2-1.34-2.12-2.88-2.75-4.64-.63-1.76-.95-3.84-.95-6.24,0-3.28.72-6.11,2.15-8.48s3.34-4.3,5.73-5.81c2.39-1.51,5.12-2.62,8.19-3.32,3.07-.71,6.27-1.06,9.59-1.06,2.6,0,5.23.2,7.9.6,2.67.4,5.31.98,7.9,1.75v13.97c-2.29-1.34-4.75-2.34-7.36-3.01s-5.18-1-7.7-1c-1.18,0-2.3.11-3.35.31-1.05.21-1.98.52-2.78.92-.8.4-1.43.92-1.89,1.55s-.69,1.35-.69,2.15c0,1.07.34,1.99,1.03,2.75s1.58,1.42,2.69,1.98c1.11.55,2.34,1.05,3.69,1.49,1.36.44,2.7.89,4.04,1.35,2.41.84,4.58,1.76,6.53,2.75,1.95.99,3.62,2.16,5.01,3.49,1.39,1.34,2.46,2.9,3.21,4.7.75,1.79,1.12,3.93,1.12,6.42,0,3.47-.75,6.44-2.26,8.91-1.51,2.46-3.51,4.47-6.01,6.01-2.5,1.55-5.38,2.67-8.65,3.38s-6.65,1.06-10.17,1.06c-6.45,0-12.43-.99-17.93-2.98Z"/>
        <path class="cls-2" d="m482.06,177.14c-2.67,1.41-6.7,2.12-12.08,2.12-12.75,0-19.13-6.62-19.13-19.87v-26.86h-9.51v-13.34h9.51v-12.66l18.04-5.16v17.81h13.17v13.34h-13.17v23.71c0,6.11,2.42,9.16,7.27,9.16,1.91,0,3.88-.55,5.9-1.66v13.4Z"/>
        <path class="cls-2" d="m502.59,109.9c-3.05,0-5.56-.91-7.5-2.72-1.95-1.81-2.92-4.04-2.92-6.67s.97-4.93,2.92-6.64c1.95-1.72,4.45-2.58,7.5-2.58s5.6.86,7.53,2.58c1.93,1.72,2.89,3.93,2.89,6.64s-.96,5-2.89,6.76c-1.93,1.76-4.44,2.63-7.53,2.63Zm8.93,67.93h-18.1v-58.65h18.1v58.65Z"/>
        <path class="cls-2" d="m578.28,153.66h-38.26c.61,8.51,5.98,12.77,16.09,12.77,6.45,0,12.12-1.53,17.01-4.58v13.06c-5.42,2.9-12.47,4.35-21.13,4.35-9.47,0-16.82-2.62-22.05-7.88-5.23-5.25-7.85-12.57-7.85-21.96s2.83-17.45,8.48-23.14c5.65-5.69,12.6-8.53,20.85-8.53s15.17,2.54,19.85,7.62c4.68,5.08,7.02,11.97,7.02,20.68v7.62Zm-16.78-11.11c0-8.4-3.4-12.6-10.19-12.6-2.9,0-5.41,1.2-7.53,3.61s-3.41,5.4-3.87,8.99h21.59Z"/>
      </g>
      <rect class="cls-1" width="654.55" height="270.55"/>
    </g>
  </g>
</svg>