<?xml version="1.0" encoding="UTF-8"?>
<svg id="Layer_2" data-name="Layer 2" xmlns="http://www.w3.org/2000/svg" xmlns:xlink="http://www.w3.org/1999/xlink" viewBox="0 0 270.55 270.55">
  <defs>
    <style>
      .cls-1 {
        fill: url(#linear-gradient);
      }

      .cls-1, .cls-2 {
        stroke-width: 0px;
      }

      .cls-2 {
        fill: none;
      }
    </style>
    <linearGradient id="linear-gradient" x1="135.27" y1="225.9" x2="135.27" y2="44.65" gradientUnits="userSpaceOnUse">
      <stop offset=".18" stop-color="#780095"/>
      <stop offset=".41" stop-color="#da0069"/>
      <stop offset=".69" stop-color="#f6931d"/>
    </linearGradient>
  </defs>
  <g id="Layer_1-2" data-name="Layer 1">
    <rect class="cls-2" width="270.55" height="270.55"/>
    <path class="cls-1" d="m169.45,74.17s0-.01,0-.02v-26.15c0-2.57,2.78-4.18,5.01-2.89l31.47,18.17c2.82,1.63,4.56,4.64,4.56,7.89v36.35s0,.02,0,.03v26.14c0,2.57-2.78,4.18-5.01,2.89l-31.47-18.17c-2.82-1.63-4.56-4.64-4.56-7.89v-36.35Zm70.33,87l-31.48-18.17c-2.82-1.63-6.29-1.63-9.11,0l-29.69,17.14-27.46-15.85,29.24-16.88c2.23-1.29,2.23-4.5,0-5.79l-31.48-18.17c-2.82-1.63-6.29-1.63-9.11,0l-31.48,18.17c-2.23,1.29-2.23,4.5,0,5.79l29.24,16.88-27.43,15.84-29.67-17.13c-2.82-1.63-6.29-1.63-9.11,0l-31.48,18.17c-2.23,1.29-2.23,4.5,0,5.79l31.48,18.17c2.82,1.63,6.29,1.63,9.11,0l29.67-17.13,27.43,15.84-29.24,16.88c-2.23,1.29-2.23,4.5,0,5.79l31.48,18.17c2.82,1.63,6.29,1.63,9.11,0l31.48-18.17c2.23-1.29,2.23-4.5,0-5.79l-29.24-16.88,27.46-15.85,29.69,17.14c2.82,1.63,6.29,1.63,9.11,0l31.48-18.17c2.23-1.29,2.23-4.5,0-5.79Zm-174.76-50.76l31.47-18.17c2.82-1.63,4.56-4.64,4.56-7.89v-36.35c0-2.57-2.78-4.18-5.01-2.89l-31.47,18.17c-2.82,1.63-4.56,4.64-4.56,7.89v36.35c0,2.57,2.78,4.18,5.01,2.89Z"/>
  </g>
</svg>